<svg id="Layer_1" data-name="Layer 1" xmlns="http://www.w3.org/2000/svg" xmlns:xlink="http://www.w3.org/1999/xlink" viewBox="0 0 200 200"><defs><style>.cls-1{fill:url(#linear-gradient);}.cls-2{fill:url(#linear-gradient-2);}.cls-3{fill:url(#linear-gradient-3);}.cls-4{fill:url(#linear-gradient-4);}.cls-5{fill:url(#linear-gradient-5);}.cls-6{fill:url(#linear-gradient-6);}</style><linearGradient id="linear-gradient" x1="14.05" y1="99.83" x2="131.94" y2="99.83" gradientUnits="userSpaceOnUse"><stop offset="0" stop-color="#bbe0f7"/><stop offset="1" stop-color="#82b4fb"/></linearGradient><linearGradient id="linear-gradient-2" x1="14.05" y1="99.83" x2="131.94" y2="99.83" gradientUnits="userSpaceOnUse"><stop offset="0" stop-color="#76a1f0"/><stop offset="1" stop-color="#6b90d5"/></linearGradient><linearGradient id="linear-gradient-3" x1="72.14" y1="91.62" x2="161.41" y2="91.62" xlink:href="#linear-gradient"/><linearGradient id="linear-gradient-4" x1="72.14" y1="91.62" x2="161.41" y2="91.62" xlink:href="#linear-gradient-2"/><linearGradient id="linear-gradient-5" x1="72.14" y1="75.78" x2="193" y2="75.78" xlink:href="#linear-gradient"/><linearGradient id="linear-gradient-6" x1="72.14" y1="75.78" x2="193" y2="75.78" xlink:href="#linear-gradient-2"/></defs><title>Blog 4</title><path id="_Compound_Path_" data-name="&lt;Compound Path&gt;" class="cls-1" d="M73,74.59a58.6,58.6,0,0,0-26.31,6.22V23.48C46.69,15,39.2,6.79,30.4,7.18s-16.29,7.16-16.29,16.3V131.39c0,.72-.06,1.43-.06,2.15A58.95,58.95,0,1,0,73,74.59Zm0,85.2a26.25,26.25,0,1,1,26.25-26.25A26.27,26.27,0,0,1,73,159.79Z"/><path id="_Compound_Path_2" data-name="&lt;Compound Path&gt;" class="cls-2" d="M31,13h0c5.07,0,9.87,5.1,9.87,10.5V90.22L49.3,86A52.4,52.4,0,0,1,73,80.41a53.14,53.14,0,1,1-53.14,53.13c0-.55,0-1.13.05-1.75V23.48c0-5.71,4.62-10.21,10.74-10.49H31M73,165.6a32.06,32.06,0,1,0-32.06-32.06A32.09,32.09,0,0,0,73,165.6M31,7.17H30.4c-8.83.4-16.29,7.16-16.29,16.3V131.39c0,.72-.06,1.43-.06,2.15A59,59,0,1,0,46.69,80.81V23.48c0-8.33-7.15-16.31-15.68-16.31ZM73,159.79a26.25,26.25,0,1,1,26.25-26.25A26.27,26.27,0,0,1,73,159.79Z"/><path id="_Path_" data-name="&lt;Path&gt;" class="cls-3" d="M161.41,127.2h0v0A80.18,80.18,0,0,0,81.22,47a9.08,9.08,0,1,0,0,18.15h.14a62,62,0,0,1,61.91,61.94.62.62,0,0,0,0,.13,9.08,9.08,0,0,0,18.15,0h0Z"/><path id="_Compound_Path_3" data-name="&lt;Compound Path&gt;" class="cls-4" d="M81.21,52.79a74.32,74.32,0,0,1,70.66,51.11,74.27,74.27,0,0,1,3.72,23.2v.1a3.26,3.26,0,0,1-6.52.1,1,1,0,0,0,0-.17v-.08a67.82,67.82,0,0,0-67.7-67.74h-.27a3.26,3.26,0,0,1,.1-6.52m0-5.81a9.08,9.08,0,1,0,0,18.15h.14a62,62,0,0,1,61.91,61.94.62.62,0,0,0,0,.13,9.08,9.08,0,0,0,18.15,0h0v0h0v0A80.18,80.18,0,0,0,81.22,47Z"/><path id="_Path_2" data-name="&lt;Path&gt;" class="cls-5" d="M193,126.19A110.79,110.79,0,0,0,82.09,15.28h-.17a9.78,9.78,0,1,0,0,19.56h.2a91.26,91.26,0,0,1,91.33,91.36v.13c0,.06,0,.12,0,.18a9.78,9.78,0,0,0,19.56,0v-.31Z"/><path id="_Compound_Path_4" data-name="&lt;Compound Path&gt;" class="cls-6" d="M82.11,21.09h0m0,0a105,105,0,0,1,99.82,72.18,104.73,104.73,0,0,1,5.27,32.92v.27s0,.09,0,.13a4,4,0,0,1-7.94,0,1.34,1.34,0,0,0,0-.21v-.21A97,97,0,0,0,82.12,29H81.8a4,4,0,0,1,0-7.94h.29m0-5.81h-.17a9.78,9.78,0,1,0,0,19.56h.2a91.26,91.26,0,0,1,91.33,91.36v.13c0,.06,0,.12,0,.18a9.78,9.78,0,0,0,19.56,0v-.31A110.79,110.79,0,0,0,82.09,15.28Z"/></svg>